<svg xmlns="http://www.w3.org/2000/svg" xmlns:xlink="http://www.w3.org/1999/xlink" width="500" zoomAndPan="magnify" viewBox="0 0 375 374.999991" height="500" preserveAspectRatio="xMidYMid meet" version="1.0"><path fill="#092d1e" d="M 138.640625 115.449219 C 131.996094 112.761719 127.742188 106.195312 124.757812 99.625 C 113.859375 76.121094 112.441406 48.285156 121.023438 23.804688 C 122.890625 18.507812 125.355469 13.132812 129.832031 9.851562 C 132.445312 7.910156 136.328125 6.867188 138.867188 8.878906 C 140.433594 10.148438 141.105469 12.238281 141.628906 14.179688 C 143.046875 20 143.492188 25.96875 143.941406 31.941406 C 144.6875 41.492188 145.433594 51.042969 146.105469 60.671875 C 146.628906 67.460938 147.152344 74.253906 146.628906 80.96875 C 145.808594 92.761719 141.925781 105.074219 146.328125 116.042969 C 142.972656 116.492188 139.460938 115.597656 136.625 113.730469 " fill-opacity="1" fill-rule="nonzero"/><path fill="#092d1e" d="M 141.402344 112.386719 C 133.714844 108.878906 129.757812 99.777344 126.921875 92.386719 C 123.710938 84.03125 121.621094 75.222656 120.726562 66.34375 C 119.832031 57.386719 120.128906 48.359375 121.621094 39.476562 C 123.039062 31.195312 124.980469 21.34375 130.132812 14.550781 C 131.773438 12.460938 133.863281 10.222656 135.953125 12.910156 C 137.148438 14.476562 137.296875 17.460938 137.597656 19.253906 C 138.417969 23.804688 138.714844 28.507812 139.089844 33.132812 C 139.835938 42.6875 140.582031 52.238281 141.253906 61.867188 C 142 71.640625 142 80.96875 140.65625 90.746094 C 139.460938 99.703125 138.34375 108.582031 141.476562 117.3125 C 143.195312 115.820312 144.910156 114.328125 146.703125 112.761719 C 144.164062 112.910156 142.375 112.386719 140.210938 111.121094 C 136.851562 109.179688 128.414062 113.804688 132.894531 116.34375 C 137 118.730469 141.105469 119.550781 145.808594 119.253906 C 147.597656 119.179688 151.929688 117.386719 151.03125 114.703125 C 147.898438 105.894531 149.390625 97.015625 150.585938 87.984375 C 151.777344 79.03125 151.628906 70.296875 150.957031 61.34375 C 150.285156 51.792969 149.464844 42.238281 148.792969 32.6875 C 148.195312 25.375 148.941406 14.03125 144.238281 7.910156 C 140.359375 2.835938 132.59375 4.179688 127.890625 7.089844 C 121.398438 11.121094 118.1875 18.207031 115.875 25.148438 C 110.574219 40.96875 109.378906 57.984375 111.917969 74.402344 C 114.382812 89.925781 120.128906 111.417969 135.804688 118.433594 C 139.539062 120.148438 146.777344 114.851562 141.402344 112.386719 Z M 141.402344 112.386719 " fill-opacity="1" fill-rule="nonzero"/><path fill="#092d1e" d="M 99.976562 137.460938 C 102.4375 138.507812 105.351562 137.015625 106.769531 134.777344 C 108.1875 132.539062 108.335938 129.703125 108.1875 127.089844 C 107.363281 112.3125 98.632812 99.179688 89.152344 87.835938 C 79.671875 76.492188 69.070312 65.597656 63.175781 52.015625 C 62.203125 49.777344 61.085938 47.164062 58.769531 46.417969 C 55.636719 45.296875 52.425781 48.359375 51.304688 51.492188 C 49.140625 57.460938 50.933594 64.253906 54.292969 69.625 C 57.652344 75 62.578125 79.253906 67.132812 83.65625 C 77.058594 93.359375 86.242188 105.222656 87.210938 119.105469 C 87.433594 122.015625 87.285156 125 88.03125 127.835938 C 89.597656 133.730469 95.570312 138.207031 101.765625 137.984375 " fill-opacity="1" fill-rule="nonzero"/><path fill="#092d1e" d="M 97.289062 140.746094 C 104.601562 142.761719 111.695312 138.359375 112.8125 130.746094 C 114.007812 122.460938 110.796875 113.359375 107.214844 106.121094 C 98.929688 89.402344 84.523438 77.089844 74.148438 61.792969 C 71.609375 58.058594 69.519531 54.179688 67.652344 50.148438 C 66.085938 46.714844 64.292969 43.730469 60.414062 42.835938 C 52.648438 40.894531 46.527344 48.285156 45.707031 55.222656 C 44.664062 64.105469 49.589844 72.238281 55.488281 78.433594 C 61.832031 85.148438 68.847656 91.121094 74.222656 98.730469 C 77.207031 102.910156 79.597656 107.386719 81.089844 112.386719 C 82.507812 117.238281 82.210938 122.015625 82.957031 126.867188 C 84.300781 136.121094 92.585938 141.269531 101.394531 141.492188 C 106.917969 141.566406 108.558594 134.402344 102.140625 134.328125 C 94.375 134.179688 92.4375 126.34375 92.136719 120.222656 C 91.839844 114.105469 90.421875 108.433594 87.734375 102.910156 C 81.6875 90.523438 71.3125 82.6875 62.503906 72.539062 C 58.097656 67.539062 54.21875 60.96875 55.410156 53.957031 C 55.5625 52.984375 55.859375 51.792969 56.382812 50.894531 C 56.53125 50.671875 56.753906 50.449219 56.90625 50.222656 C 57.503906 49.328125 57.578125 49.328125 57.277344 50.148438 C 57.652344 50.597656 58.324219 53.132812 58.695312 53.957031 C 59.964844 56.792969 61.382812 59.550781 63.027344 62.238281 C 70.042969 73.878906 79.820312 83.507812 88.105469 94.179688 C 92.734375 100.222656 97.140625 106.640625 99.976562 113.730469 C 101.246094 117.015625 102.289062 120.375 102.886719 123.878906 C 103.257812 125.894531 103.484375 128.058594 103.335938 130.148438 C 103.257812 130.894531 103.183594 131.566406 102.960938 132.238281 C 102.664062 133.285156 101.691406 133.957031 102.664062 134.253906 C 100.421875 133.65625 97.511719 134.03125 95.945312 136.042969 C 94.75 137.613281 95.046875 140.148438 97.289062 140.746094 Z M 97.289062 140.746094 " fill-opacity="1" fill-rule="nonzero"/><path fill="#092d1e" d="M 212.988281 145.894531 C 205.523438 147.089844 197.910156 142.6875 193.582031 136.492188 C 189.175781 130.296875 187.460938 122.613281 186.488281 115.074219 C 184.847656 102.460938 185.144531 89.703125 187.234375 77.164062 C 190.59375 57.164062 198.804688 37.460938 196.492188 17.238281 C 196.042969 13.582031 195.445312 9.476562 197.6875 6.566406 C 198.804688 5.074219 200.523438 4.179688 202.3125 3.65625 C 207.464844 2.238281 213.136719 4.253906 217.167969 7.835938 C 221.199219 11.417969 223.664062 16.34375 225.601562 21.34375 C 227.769531 27.015625 229.261719 32.984375 229.035156 38.957031 C 228.738281 47.3125 225.304688 55.148438 222.46875 62.984375 C 217.390625 77.238281 214.40625 92.984375 218.4375 107.613281 C 220.824219 116.121094 225.453125 123.957031 227.097656 132.613281 C 227.46875 134.476562 227.617188 136.492188 227.171875 138.285156 C 226.273438 141.492188 223.4375 143.878906 220.304688 145 C 217.167969 146.121094 213.734375 146.195312 210.449219 146.269531 " fill-opacity="1" fill-rule="nonzero"/><path fill="#092d1e" d="M 214.929688 143.730469 C 200.746094 145.074219 193.953125 129.925781 191.863281 118.359375 C 189.324219 104.625 189.550781 90.148438 191.9375 76.492188 C 194.027344 64.253906 197.835938 52.3125 200 40.074219 C 201.121094 33.878906 201.792969 27.613281 201.640625 21.269531 C 201.492188 15.523438 198.507812 1.195312 209.480469 7.238281 C 219.78125 12.910156 224.707031 29.402344 224.335938 40.375 C 223.886719 52.761719 217.019531 64.179688 214.183594 76.042969 C 211.421875 87.6875 210.824219 99.777344 214.480469 111.269531 C 216.199219 116.640625 218.734375 121.714844 220.527344 127.015625 C 223.4375 135.671875 224.632812 143.804688 212.464844 144.179688 C 209.554688 144.253906 202.238281 148.730469 208.507812 148.507812 C 216.421875 148.285156 229.261719 146.867188 231.949219 137.613281 C 233.292969 133.058594 231.125 127.539062 229.632812 123.285156 C 227.320312 116.792969 224.183594 110.671875 222.691406 103.878906 C 219.558594 89.925781 222.617188 75.449219 227.246094 62.238281 C 231.5 50.148438 235.753906 39.179688 232.394531 26.195312 C 229.707031 16.042969 224.257812 4.328125 213.136719 1.566406 C 206.867188 0 197.015625 1.34375 193.132812 7.238281 C 189.996094 12.015625 192.085938 18.433594 192.238281 23.730469 C 192.460938 31.417969 191.265625 39.179688 189.699219 46.640625 C 186.714844 60.671875 182.53125 74.328125 181.265625 88.65625 C 179.472656 109.253906 180.667969 150.820312 211.121094 147.984375 C 212.691406 147.835938 216.71875 147.386719 217.390625 145.597656 C 217.988281 143.957031 216.71875 143.507812 214.929688 143.730469 Z M 214.929688 143.730469 " fill-opacity="1" fill-rule="nonzero"/><path fill="#092d1e" d="M 233.664062 285.96875 C 238.964844 289.476562 245.085938 291.789062 251.429688 292.460938 C 255.683594 292.910156 260.238281 292.6875 263.746094 290.222656 C 267.480469 287.613281 269.269531 282.984375 269.644531 278.433594 C 270.539062 269.03125 265.835938 259.253906 258 254.03125 C 254.265625 251.566406 250.085938 250.074219 245.980469 248.433594 C 238.070312 245.148438 230.605469 240.96875 223.140625 236.867188 C 217.617188 233.804688 212.019531 230.671875 207.316406 226.417969 C 203.285156 222.761719 199.925781 218.359375 197.535156 213.433594 C 195.296875 208.878906 192.910156 203.207031 187.832031 202.761719 C 186.414062 202.6875 184.921875 203.058594 183.578125 203.65625 C 178.578125 205.894531 174.992188 211.042969 174.695312 216.566406 C 174.398438 221.941406 176.933594 227.089844 180.292969 231.269531 C 183.726562 235.449219 187.980469 238.804688 191.789062 242.539062 C 196.714844 247.3125 200.96875 252.6875 204.480469 258.582031 C 209.628906 267.164062 213.660156 277.238281 222.242188 282.238281 C 226.871094 284.925781 232.320312 285.746094 237.546875 286.566406 " fill-opacity="1" fill-rule="nonzero"/><path fill="#092d1e" d="M 230.007812 288.804688 C 238.367188 294.179688 249.414062 297.984375 259.492188 295.746094 C 269.269531 293.582031 274.71875 285 274.570312 275.296875 C 274.421875 265.820312 269.570312 256.566406 261.65625 251.269531 C 256.953125 248.132812 251.503906 246.417969 246.355469 244.179688 C 240.679688 241.714844 235.230469 238.730469 229.785156 235.746094 C 220.003906 230.296875 210.152344 225 204.03125 215.222656 C 199.703125 208.285156 197.089844 198.207031 186.789062 199.253906 C 177.308594 200.148438 169.542969 209.476562 169.917969 218.878906 C 170.367188 229.703125 179.097656 236.941406 186.488281 243.730469 C 195.746094 252.3125 200.820312 262.835938 207.464844 273.285156 C 210.375 277.910156 214.03125 282.238281 218.734375 285.074219 C 224.035156 288.207031 230.082031 289.253906 236.128906 290.222656 C 240.980469 290.96875 245.683594 284.03125 239.339844 283.058594 C 230.230469 281.640625 223.214844 279.253906 217.691406 271.492188 C 213.136719 265.074219 210.078125 257.6875 205.449219 251.269531 C 200.523438 244.402344 194.402344 239.03125 188.429688 233.207031 C 182.683594 227.613281 176.261719 218.582031 181.488281 210.523438 C 183.652344 207.238281 186.714844 205.375 189.476562 208.804688 C 191.714844 211.640625 192.910156 215.222656 194.625 218.285156 C 198.65625 225.222656 204.628906 230.671875 211.347656 235 C 218.585938 239.625 226.351562 243.730469 234.039062 247.613281 C 241.800781 251.492188 251.878906 253.65625 258.074219 260 C 263.894531 265.96875 267.105469 275.96875 263.671875 283.957031 C 259.269531 294.179688 243.890625 287.539062 237.324219 283.285156 C 233.515625 280.746094 225.378906 285.820312 230.007812 288.804688 Z M 230.007812 288.804688 " fill-opacity="1" fill-rule="nonzero"/><path fill="#092d1e" d="M 286.8125 187.539062 C 288.453125 190.296875 291.960938 191.566406 295.097656 191.269531 C 298.308594 190.96875 301.21875 189.402344 303.757812 187.460938 C 312.265625 180.96875 317.265625 170.597656 318.761719 160 C 320.253906 149.402344 318.609375 138.582031 315.847656 128.285156 C 309.132812 103.65625 295.320312 80.597656 275.09375 65.148438 C 270.988281 62.015625 265.835938 59.105469 260.910156 60.523438 C 256.355469 61.867188 253.59375 66.640625 253.222656 71.34375 C 252.847656 76.042969 254.417969 80.671875 256.207031 85.074219 C 260.835938 96.640625 266.734375 107.6875 273.078125 118.433594 C 277.035156 125.148438 281.140625 131.792969 284.050781 139.03125 C 286.960938 146.269531 288.605469 154.179688 287.410156 161.867188 C 286.515625 167.3125 284.273438 172.460938 283.527344 177.910156 C 282.78125 183.359375 283.902344 189.625 288.378906 192.835938 " fill-opacity="1" fill-rule="nonzero"/><path fill="#092d1e" d="M 282.484375 189.703125 C 288.230469 197.164062 298.308594 195.746094 305.398438 190.96875 C 314.058594 185.074219 319.804688 175.671875 322.34375 165.671875 C 328.390625 142.386719 319.132812 115.820312 307.488281 95.597656 C 301.816406 85.746094 294.800781 76.792969 286.515625 68.957031 C 279.273438 62.164062 269.34375 53.507812 258.671875 57.460938 C 234.1875 66.714844 259.195312 104.179688 266.734375 117.3125 C 274.421875 130.597656 284.574219 144.851562 282.632812 160.96875 C 281.214844 172.910156 273.375 185.96875 284.722656 195.597656 C 288.15625 198.507812 296.21875 193.507812 291.960938 189.851562 C 282.332031 181.714844 292.933594 164.925781 292.484375 154.550781 C 292.039062 143.582031 287.335938 133.65625 282.035156 124.253906 C 275.316406 112.386719 268.152344 100.894531 262.777344 88.359375 C 260.3125 82.6875 256.207031 74.777344 258.445312 68.507812 C 261.507812 59.851562 269.269531 66.121094 273.898438 69.851562 C 291.066406 83.804688 303.085938 103.582031 309.652344 124.550781 C 313.460938 136.640625 316 149.625 313.609375 162.238281 C 312.488281 168.132812 310.25 173.878906 306.667969 178.730469 C 303.757812 182.6875 295.84375 191.492188 291.066406 185.375 C 288.304688 181.792969 279.347656 185.671875 282.484375 189.703125 Z M 282.484375 189.703125 " fill-opacity="1" fill-rule="nonzero"/><path fill="#57c4b2" d="M 210.003906 42.089844 C 202.238281 56.867188 201.269531 75.296875 200.96875 91.714844 C 200.671875 108.433594 201.269531 126.492188 207.015625 142.386719 C 215.75 166.640625 232.46875 187.460938 247.699219 207.910156 C 264.566406 230.597656 281.140625 253.65625 294.351562 278.65625 C 309.652344 307.539062 321.671875 340 318.015625 373.132812 C 317.789062 375 322.566406 374.105469 322.714844 372.539062 C 328.613281 319.03125 296.515625 268.058594 266.808594 226.269531 C 251.058594 204.105469 232.992188 183.058594 220.078125 159.105469 C 210.675781 141.640625 206.792969 124.402344 205.972656 104.777344 C 205.074219 84.851562 204.925781 60.375 214.480469 42.164062 C 215.375 40.222656 210.675781 40.746094 210.003906 42.089844 Z M 210.003906 42.089844 " fill-opacity="1" fill-rule="nonzero"/><path fill="#57c4b2" d="M 234.933594 186.941406 C 217.542969 176.492188 199.476562 167.835938 180.890625 159.703125 C 165.960938 153.207031 153.792969 146.042969 147.375 130.671875 C 142.074219 117.835938 139.238281 103.957031 137.296875 90.222656 C 135.507812 77.761719 134.238281 64.777344 135.507812 52.164062 C 135.730469 50.222656 130.953125 51.121094 130.804688 52.761719 C 129.535156 65.296875 130.804688 78.207031 132.445312 90.671875 C 134.460938 105.074219 137.296875 119.925781 143.195312 133.285156 C 149.167969 146.941406 159.691406 154.105469 173.054688 160.222656 C 192.832031 169.328125 212.464844 177.984375 231.125 189.253906 C 232.546875 190.074219 236.875 188.132812 234.933594 186.941406 Z M 234.933594 186.941406 " fill-opacity="1" fill-rule="nonzero"/><path fill="#57c4b2" d="M 140.285156 129.328125 C 124.011719 131.640625 107.515625 123.507812 98.929688 109.625 C 97.886719 107.984375 93.332031 109.625 94.601562 111.640625 C 103.929688 126.714844 122.292969 135.074219 139.835938 132.613281 C 140.804688 132.460938 142.375 131.941406 142.449219 130.746094 C 142.523438 129.625 141.179688 129.253906 140.285156 129.328125 Z M 140.285156 129.328125 " fill-opacity="1" fill-rule="nonzero"/><path fill="#57c4b2" d="M 309.578125 300.222656 C 289.574219 273.804688 293.753906 236.792969 298.234375 206.195312 C 302.9375 174.105469 308.234375 139.03125 288.902344 110.449219 C 288.082031 109.253906 283.75 111.121094 284.199219 111.714844 C 304.726562 142.015625 297.410156 179.253906 292.710938 213.058594 C 288.605469 242.089844 286.066406 276.640625 304.875 301.417969 C 305.699219 302.6875 309.953125 300.746094 309.578125 300.222656 Z M 309.578125 300.222656 " fill-opacity="1" fill-rule="nonzero"/><path fill="#57c4b2" d="M 323.386719 347.910156 C 322.269531 338.730469 316.820312 329.777344 312.191406 321.867188 C 307.117188 313.207031 301.441406 305 294.726562 297.613281 C 276.960938 278.058594 254.191406 264.105469 231.796875 250.523438 C 230.679688 249.851562 226.796875 251.792969 227.320312 252.089844 C 249.191406 265.449219 271.511719 279.105469 289.125 297.984375 C 296.367188 305.820312 302.414062 314.476562 307.789062 323.65625 C 312.265625 331.34375 317.566406 340.148438 318.6875 349.105469 C 318.761719 350 323.539062 349.105469 323.386719 347.910156 Z M 323.386719 347.910156 " fill-opacity="1" fill-rule="nonzero"/><path fill="#092d1e" d="M 211.421875 138.359375 C 212.390625 150.296875 218.363281 160.523438 225.15625 170.074219 C 231.875 179.550781 238.742188 188.878906 245.382812 198.433594 C 259.117188 218.058594 272.628906 237.835938 286.738281 257.164062 C 287.933594 258.804688 292.484375 257.015625 291.066406 255.074219 C 277.332031 236.269531 264.195312 217.015625 250.757812 197.910156 C 244.488281 188.957031 238.070312 180 231.648438 171.195312 C 224.183594 160.894531 217.09375 150.148438 216.046875 137.089844 C 215.972656 135.074219 211.269531 136.195312 211.421875 138.359375 Z M 211.421875 138.359375 " fill-opacity="1" fill-rule="nonzero"/><path fill="#092d1e" d="M 231.425781 188.132812 C 231.5 188.132812 231.574219 188.132812 231.648438 188.132812 C 231.949219 188.132812 232.171875 188.132812 232.46875 188.058594 C 232.769531 188.058594 233.066406 187.984375 233.367188 187.910156 C 233.664062 187.835938 233.964844 187.761719 234.261719 187.613281 C 234.484375 187.539062 234.785156 187.386719 235.007812 187.238281 C 235.082031 187.164062 235.230469 187.089844 235.308594 187.015625 C 235.457031 186.867188 235.53125 186.714844 235.53125 186.566406 C 235.457031 186.492188 235.457031 186.417969 235.382812 186.417969 C 235.15625 186.269531 234.933594 186.269531 234.710938 186.269531 C 234.636719 186.269531 234.5625 186.269531 234.484375 186.269531 C 234.1875 186.269531 233.964844 186.269531 233.664062 186.34375 C 233.367188 186.34375 233.066406 186.417969 232.769531 186.492188 C 232.46875 186.566406 232.171875 186.640625 231.875 186.792969 C 231.648438 186.867188 231.351562 187.015625 231.125 187.164062 C 231.050781 187.238281 230.902344 187.3125 230.828125 187.386719 C 230.679688 187.539062 230.605469 187.6875 230.605469 187.835938 C 230.679688 187.910156 230.679688 187.984375 230.753906 187.984375 C 230.976562 188.058594 231.203125 188.132812 231.425781 188.132812 Z M 231.425781 188.132812 " fill-opacity="1" fill-rule="nonzero"/><path fill="#092d1e" d="M 287.933594 260.222656 C 288.527344 260.671875 289.050781 261.269531 289.425781 261.941406 C 289.351562 261.867188 289.277344 261.714844 289.277344 261.640625 C 289.574219 262.164062 289.796875 262.6875 289.871094 263.285156 C 289.949219 263.65625 290.46875 263.878906 290.769531 263.957031 C 291.289062 264.105469 292.039062 264.03125 292.558594 263.878906 C 293.082031 263.730469 293.753906 263.507812 294.128906 263.058594 C 294.425781 262.761719 294.648438 262.460938 294.574219 262.015625 C 294.425781 261.269531 294.054688 260.523438 293.679688 259.851562 C 293.304688 259.253906 292.859375 258.730469 292.335938 258.359375 C 292.1875 258.207031 292.039062 258.132812 291.8125 258.058594 C 291.589844 257.984375 291.289062 257.910156 291.066406 257.910156 C 290.769531 257.910156 290.46875 257.910156 290.171875 257.984375 C 289.871094 258.058594 289.5 258.132812 289.199219 258.285156 C 288.753906 258.507812 288.15625 258.804688 287.933594 259.253906 C 287.707031 259.550781 287.558594 260 287.933594 260.222656 Z M 287.933594 260.222656 " fill-opacity="1" fill-rule="nonzero"/><path fill="#092d1e" d="M 301.816406 181.269531 C 296.816406 217.6875 286.960938 255.523438 303.382812 290.449219 C 315.550781 316.269531 326.074219 343.582031 321.597656 372.761719 C 321.371094 374.253906 326.074219 373.359375 326.300781 372.015625 C 330.40625 345.375 322.417969 317.835938 310.550781 294.105469 C 301.667969 276.34375 297.785156 258.730469 298.980469 238.804688 C 300.171875 219.253906 303.832031 199.925781 306.519531 180.523438 C 306.742188 179.105469 301.964844 179.925781 301.816406 181.269531 Z M 301.816406 181.269531 " fill-opacity="1" fill-rule="nonzero"/><path fill="#092d1e" d="M 261.285156 268.957031 C 280.839844 283.359375 298.160156 300.671875 312.488281 320.296875 C 313.386719 321.492188 317.9375 319.925781 316.894531 318.507812 C 302.5625 298.878906 285.246094 281.566406 265.6875 267.164062 C 264.417969 266.269531 260.089844 268.132812 261.285156 268.957031 Z M 261.285156 268.957031 " fill-opacity="1" fill-rule="nonzero"/><path fill="#092d1e" d="M 317.789062 322.835938 C 314.207031 316.714844 310.996094 310.375 308.085938 303.878906 C 307.265625 302.089844 303.308594 303.285156 303.382812 305.148438 C 303.457031 307.386719 303.609375 309.625 303.683594 311.867188 C 303.683594 312.6875 305.25 312.6875 305.773438 312.613281 C 306.59375 312.539062 307.863281 312.089844 308.308594 311.269531 C 308.308594 311.195312 308.382812 311.195312 308.382812 311.121094 C 308.160156 311.34375 307.9375 311.566406 307.636719 311.792969 C 307.714844 311.792969 307.714844 311.714844 307.789062 311.714844 C 307.191406 311.941406 306.59375 312.164062 305.996094 312.3125 C 306.070312 312.3125 306.144531 312.3125 306.144531 312.3125 C 305.773438 312.3125 305.398438 312.3125 305.027344 312.238281 C 304.578125 312.164062 304.875 312.386719 305.101562 312.6875 C 305.25 312.910156 305.398438 313.207031 305.546875 313.433594 C 305.847656 313.957031 306.21875 314.550781 306.519531 315.074219 C 306.964844 315.894531 308.757812 315.523438 309.355469 315.296875 C 309.878906 315.074219 311.445312 314.328125 311.070312 313.507812 C 310.699219 312.835938 310.398438 312.089844 310.027344 311.417969 C 309.578125 310.449219 308.234375 310.523438 307.339844 310.746094 C 306.742188 310.894531 304.949219 311.714844 305.324219 312.6875 C 305.621094 313.433594 305.996094 314.105469 306.519531 314.777344 C 307.5625 316.121094 312.117188 314.476562 310.921875 312.835938 C 310.550781 312.386719 310.324219 311.941406 310.101562 311.417969 C 308.535156 311.867188 306.964844 312.238281 305.398438 312.6875 C 305.773438 313.359375 306.070312 314.105469 306.445312 314.777344 C 307.9375 314.253906 309.503906 313.730469 310.996094 313.207031 C 310.625 312.613281 310.324219 312.015625 309.953125 311.417969 C 309.652344 310.820312 309.355469 310.148438 308.757812 309.851562 C 307.414062 309.03125 304.726562 309.625 304.054688 311.121094 C 305.546875 310.96875 307.117188 310.746094 308.609375 310.597656 C 308.535156 308.359375 308.382812 306.121094 308.308594 303.878906 C 306.742188 304.328125 305.175781 304.703125 303.609375 305.148438 C 306.59375 311.867188 309.953125 318.433594 313.683594 324.777344 C 314.207031 325.671875 316.148438 325.222656 316.820312 324.925781 C 317.417969 324.550781 318.3125 323.804688 317.789062 322.835938 Z M 317.789062 322.835938 " fill-opacity="1" fill-rule="nonzero"/><path fill="#092d1e" d="M 302.636719 303.507812 C 303.234375 305.222656 303.757812 306.941406 304.355469 308.582031 C 304.503906 308.957031 304.949219 309.105469 305.25 309.105469 C 305.773438 309.179688 306.445312 309.105469 307.042969 308.957031 C 307.5625 308.804688 308.160156 308.582031 308.609375 308.207031 C 308.832031 307.984375 309.207031 307.6875 309.132812 307.3125 C 308.535156 305.597656 308.011719 303.878906 307.414062 302.238281 C 307.265625 301.867188 306.816406 301.714844 306.519531 301.714844 C 305.996094 301.640625 305.324219 301.714844 304.726562 301.867188 C 304.203125 302.015625 303.609375 302.238281 303.160156 302.613281 C 302.859375 302.835938 302.488281 303.132812 302.636719 303.507812 Z M 302.636719 303.507812 " fill-opacity="1" fill-rule="nonzero"/><path fill="#092d1e" d="M 140.804688 112.089844 C 144.015625 125.222656 147.824219 137.835938 157.972656 147.386719 C 168.199219 156.941406 181.636719 161.941406 194.625 166.492188 C 196.789062 167.238281 200.148438 164.179688 197.3125 163.132812 C 184.847656 158.804688 172.15625 154.105469 162.230469 145.148438 C 152.226562 136.121094 148.644531 123.507812 145.507812 110.820312 C 144.984375 108.507812 140.210938 109.777344 140.804688 112.089844 Z M 140.804688 112.089844 " fill-opacity="1" fill-rule="nonzero"/><path fill="#092d1e" d="M 200.820312 169.476562 C 207.015625 171.195312 212.839844 174.105469 217.914062 178.058594 C 218.734375 178.730469 220.152344 178.359375 220.976562 177.984375 C 221.347656 177.835938 223.066406 176.941406 222.320312 176.34375 C 217.09375 172.238281 211.046875 169.105469 204.628906 167.386719 C 203.507812 167.089844 202.3125 167.3125 201.269531 167.910156 C 200.820312 168.132812 199.703125 169.105469 200.820312 169.476562 Z M 200.820312 169.476562 " fill-opacity="1" fill-rule="nonzero"/><path fill="#092d1e" d="M 97.734375 107.984375 C 100.648438 115.523438 107.214844 120.597656 114.234375 124.105469 C 122.59375 128.359375 131.773438 130.894531 141.179688 131.714844 C 142.300781 131.792969 143.792969 131.417969 144.238281 130.296875 C 144.6875 129.253906 143.867188 128.359375 142.820312 128.285156 C 134.3125 127.539062 125.953125 125.296875 118.261719 121.492188 C 111.769531 118.285156 105.273438 113.65625 102.511719 106.640625 C 101.617188 104.625 96.914062 105.96875 97.734375 107.984375 Z M 97.734375 107.984375 " fill-opacity="1" fill-rule="nonzero"/><path fill="#092d1e" d="M 217.09375 177.539062 C 220.902344 180.894531 224.929688 183.804688 229.335938 186.34375 C 229.707031 186.566406 230.457031 186.492188 230.902344 186.417969 C 231.5 186.34375 232.171875 186.121094 232.695312 185.820312 C 233.367188 185.375 234.113281 184.703125 233.140625 184.179688 C 229.035156 181.714844 225.15625 178.878906 221.574219 175.746094 C 220.824219 175.074219 219.257812 175.449219 218.4375 175.820312 C 217.988281 175.96875 216.347656 176.792969 217.09375 177.539062 Z M 217.09375 177.539062 " fill-opacity="1" fill-rule="nonzero"/><path fill="#57c4b2" d="M 135.058594 54.476562 C 136.105469 45.820312 136.328125 37.164062 135.582031 28.507812 C 135.507812 27.613281 130.730469 28.507812 130.878906 29.777344 C 131.625 38.433594 131.402344 47.164062 130.355469 55.746094 C 130.207031 56.34375 134.835938 55.96875 135.058594 54.476562 Z M 135.058594 54.476562 " fill-opacity="1" fill-rule="nonzero"/><path fill="#57c4b2" d="M 213.285156 43.65625 C 214.628906 40.96875 214.40625 37.6875 214.40625 34.777344 C 214.480469 31.640625 214.40625 28.433594 214.03125 25.296875 C 213.363281 19.777344 211.496094 14.402344 207.613281 10.222656 C 206.71875 9.253906 202.3125 10.96875 203.136719 11.867188 C 206.867188 15.894531 208.585938 21.195312 209.253906 26.566406 C 209.628906 29.476562 209.628906 32.460938 209.628906 35.375 C 209.554688 38.285156 209.851562 41.640625 208.507812 44.402344 C 208.0625 45.222656 210.152344 45.074219 210.449219 45 C 211.347656 44.925781 212.839844 44.550781 213.285156 43.65625 Z M 213.285156 43.65625 " fill-opacity="1" fill-rule="nonzero"/><path fill="#57c4b2" d="M 98.40625 110.96875 C 93.855469 91.417969 74.371094 81.195312 64.890625 64.550781 C 64.070312 63.132812 59.515625 64.625 60.488281 66.417969 C 69.820312 82.835938 89.152344 92.984375 93.628906 112.238281 C 94.078125 113.957031 98.78125 112.761719 98.40625 110.96875 Z M 98.40625 110.96875 " fill-opacity="1" fill-rule="nonzero"/><path fill="#57c4b2" d="M 289.796875 110.96875 C 280.617188 100.671875 273.75 88.433594 269.71875 75.222656 C 269.34375 74.105469 264.644531 75.449219 265.015625 76.492188 C 269.121094 89.851562 276.0625 102.164062 285.394531 112.613281 C 286.140625 113.507812 290.542969 111.792969 289.796875 110.96875 Z M 289.796875 110.96875 " fill-opacity="1" fill-rule="nonzero"/><path fill="#57c4b2" d="M 230.828125 250.449219 C 226.871094 250 223.289062 248.285156 219.78125 246.417969 C 216.347656 244.550781 212.914062 242.539062 209.40625 240.597656 C 202.089844 236.492188 194.699219 232.3125 187.386719 228.207031 C 185.816406 227.3125 181.5625 229.550781 183.652344 230.746094 C 191.492188 235.148438 199.328125 239.625 207.164062 244.03125 C 214.03125 247.910156 220.976562 252.761719 229.035156 253.582031 C 231.203125 253.804688 233.964844 250.746094 230.828125 250.449219 Z M 230.828125 250.449219 " fill-opacity="1" fill-rule="nonzero"/><path fill="#fff8e1" d="M 251.058594 280.449219 C 251.28125 281.417969 251.503906 282.386719 251.804688 283.359375 C 251.878906 283.65625 252.402344 283.730469 252.625 283.804688 C 253.148438 283.878906 253.820312 283.730469 254.339844 283.582031 C 254.863281 283.433594 255.460938 283.207031 255.984375 282.910156 C 256.207031 282.761719 256.582031 282.460938 256.507812 282.164062 C 256.28125 281.195312 256.058594 280.222656 255.761719 279.253906 C 255.683594 278.957031 255.164062 278.878906 254.9375 278.804688 C 254.417969 278.730469 253.746094 278.878906 253.222656 279.03125 C 252.699219 279.179688 252.101562 279.402344 251.578125 279.703125 C 251.355469 279.851562 250.984375 280.074219 251.058594 280.449219 Z M 251.058594 280.449219 " fill-opacity="1" fill-rule="nonzero"/><path fill="#fff8e1" d="M 252.101562 288.433594 C 252.25 288.878906 252.324219 289.402344 252.476562 289.851562 C 252.550781 290 252.625 290.074219 252.773438 290.074219 C 252.921875 290.148438 253.148438 290.222656 253.296875 290.148438 C 253.59375 290.148438 253.820312 290.148438 254.117188 290.074219 C 254.417969 290.074219 254.714844 290 255.011719 289.925781 C 255.238281 289.851562 255.460938 289.777344 255.609375 289.703125 C 255.984375 289.550781 256.28125 289.402344 256.582031 289.253906 C 256.65625 289.179688 256.804688 289.105469 256.878906 289.03125 C 257.027344 288.878906 257.101562 288.730469 257.101562 288.582031 C 256.953125 288.132812 256.878906 287.613281 256.730469 287.164062 C 256.65625 287.015625 256.582031 286.941406 256.429688 286.941406 C 256.28125 286.867188 256.058594 286.789062 255.910156 286.867188 C 255.609375 286.867188 255.386719 286.867188 255.089844 286.941406 C 254.789062 286.941406 254.492188 287.015625 254.191406 287.089844 C 253.96875 287.164062 253.746094 287.238281 253.59375 287.3125 C 253.222656 287.460938 252.921875 287.613281 252.625 287.761719 C 252.550781 287.835938 252.402344 287.910156 252.324219 287.984375 C 252.175781 288.132812 252.101562 288.285156 252.101562 288.433594 Z M 252.101562 288.433594 " fill-opacity="1" fill-rule="nonzero"/><path fill="#fff8e1" d="M 313.160156 155.449219 C 313.160156 156.417969 313.160156 157.386719 313.160156 158.433594 C 313.085938 158.65625 313.160156 158.878906 313.3125 159.03125 C 313.386719 159.253906 313.535156 159.402344 313.757812 159.550781 C 313.984375 159.703125 314.207031 159.777344 314.503906 159.851562 C 314.804688 159.925781 315.101562 159.925781 315.402344 159.925781 C 316 159.851562 316.671875 159.703125 317.191406 159.253906 C 317.34375 159.105469 317.492188 159.03125 317.640625 158.878906 C 317.863281 158.65625 318.015625 158.359375 318.089844 158.058594 C 318.089844 157.089844 318.089844 156.121094 318.089844 155.074219 C 318.164062 154.851562 318.089844 154.625 317.9375 154.476562 C 317.863281 154.253906 317.714844 154.105469 317.492188 153.957031 C 317.265625 153.804688 317.042969 153.730469 316.746094 153.65625 C 316.445312 153.582031 316.148438 153.582031 315.847656 153.582031 C 315.253906 153.65625 314.582031 153.804688 314.058594 154.253906 C 313.910156 154.402344 313.757812 154.476562 313.609375 154.625 C 313.386719 154.851562 313.238281 155.148438 313.160156 155.449219 Z M 313.160156 155.449219 " fill-opacity="1" fill-rule="nonzero"/><path fill="#fff8e1" d="M 312.339844 165.597656 C 312.339844 166.269531 312.339844 167.015625 312.339844 167.6875 C 312.414062 167.835938 312.488281 167.910156 312.640625 167.910156 C 312.789062 167.984375 313.011719 167.984375 313.160156 167.984375 C 313.460938 167.984375 313.683594 167.984375 313.984375 167.910156 C 314.28125 167.910156 314.582031 167.835938 314.878906 167.761719 C 315.101562 167.6875 315.328125 167.613281 315.476562 167.539062 C 315.847656 167.386719 316.148438 167.238281 316.445312 167.089844 C 316.519531 167.015625 316.671875 166.941406 316.746094 166.867188 C 316.894531 166.792969 316.96875 166.640625 316.96875 166.417969 C 316.96875 165.746094 316.96875 165 316.96875 164.328125 C 316.894531 164.179688 316.820312 164.105469 316.671875 164.105469 C 316.519531 164.03125 316.296875 164.03125 316.148438 164.03125 C 315.847656 164.03125 315.625 164.03125 315.328125 164.105469 C 315.027344 164.105469 314.730469 164.179688 314.429688 164.253906 C 314.207031 164.328125 313.984375 164.402344 313.832031 164.476562 C 313.460938 164.625 313.160156 164.777344 312.863281 164.925781 C 312.789062 165 312.640625 165.074219 312.566406 165.148438 C 312.414062 165.296875 312.339844 165.449219 312.339844 165.597656 Z M 312.339844 165.597656 " fill-opacity="1" fill-rule="nonzero"/><path fill="#fff8e1" d="M 219.855469 129.925781 C 220.003906 129.925781 220.152344 129.925781 220.304688 129.925781 C 220.601562 129.925781 220.902344 129.925781 221.199219 129.851562 C 221.496094 129.777344 221.871094 129.703125 222.167969 129.550781 C 222.46875 129.476562 222.691406 129.328125 222.914062 129.105469 C 223.140625 128.957031 223.289062 128.804688 223.4375 128.582031 C 223.511719 128.433594 223.511719 128.359375 223.585938 128.207031 C 223.664062 127.984375 223.585938 127.761719 223.4375 127.539062 C 223.363281 127.460938 223.214844 127.386719 223.140625 127.3125 C 222.839844 127.164062 222.542969 127.089844 222.167969 127.089844 C 222.019531 127.089844 221.871094 127.089844 221.722656 127.089844 C 221.421875 127.089844 221.125 127.089844 220.824219 127.164062 C 220.527344 127.238281 220.152344 127.3125 219.855469 127.460938 C 219.558594 127.539062 219.332031 127.6875 219.109375 127.910156 C 218.886719 128.058594 218.734375 128.207031 218.585938 128.433594 C 218.511719 128.582031 218.511719 128.65625 218.4375 128.804688 C 218.363281 129.03125 218.4375 129.253906 218.585938 129.476562 C 218.660156 129.550781 218.808594 129.625 218.886719 129.703125 C 219.183594 129.851562 219.480469 129.925781 219.855469 129.925781 Z M 219.855469 129.925781 " fill-opacity="1" fill-rule="nonzero"/><path fill="#fff8e1" d="M 218.4375 129.179688 C 218.734375 130.597656 219.035156 132.015625 219.332031 133.433594 C 219.40625 133.878906 219.929688 134.179688 220.304688 134.253906 C 220.824219 134.402344 221.574219 134.402344 222.09375 134.253906 C 222.617188 134.105469 223.289062 133.804688 223.664062 133.359375 C 223.960938 132.984375 224.183594 132.613281 224.109375 132.164062 C 223.8125 130.746094 223.511719 129.328125 223.214844 127.910156 C 223.140625 127.460938 222.617188 127.164062 222.242188 127.089844 C 221.722656 126.941406 220.976562 126.941406 220.453125 127.089844 C 219.929688 127.238281 219.257812 127.539062 218.886719 127.984375 C 218.511719 128.359375 218.289062 128.730469 218.4375 129.179688 Z M 218.4375 129.179688 " fill-opacity="1" fill-rule="nonzero"/><path fill="#fff8e1" d="M 219.257812 138.058594 C 219.257812 138.65625 219.257812 139.179688 219.257812 139.777344 C 219.332031 139.925781 219.40625 140 219.558594 140.074219 C 219.707031 140.148438 219.929688 140.222656 220.152344 140.222656 C 220.453125 140.222656 220.675781 140.222656 220.976562 140.222656 C 221.273438 140.222656 221.574219 140.148438 221.871094 140.074219 C 222.09375 140 222.320312 139.925781 222.46875 139.851562 C 222.839844 139.703125 223.140625 139.550781 223.4375 139.328125 C 223.511719 139.253906 223.664062 139.179688 223.738281 139.03125 C 223.886719 138.878906 223.960938 138.730469 223.960938 138.507812 C 223.960938 137.910156 223.960938 137.386719 223.960938 136.792969 C 223.886719 136.640625 223.8125 136.566406 223.664062 136.492188 C 223.511719 136.417969 223.289062 136.34375 223.066406 136.34375 C 222.765625 136.34375 222.542969 136.34375 222.242188 136.34375 C 221.945312 136.34375 221.648438 136.417969 221.347656 136.492188 C 221.125 136.566406 220.902344 136.640625 220.75 136.714844 C 220.378906 136.867188 220.078125 137.015625 219.78125 137.238281 C 219.707031 137.3125 219.558594 137.386719 219.480469 137.539062 C 219.257812 137.6875 219.183594 137.910156 219.257812 138.058594 Z M 219.257812 138.058594 " fill-opacity="1" fill-rule="nonzero"/><path fill="#fff8e1" d="M 143.046875 92.910156 C 143.046875 93.878906 143.046875 94.851562 143.046875 95.894531 C 142.972656 96.121094 143.046875 96.269531 143.121094 96.417969 C 143.195312 96.566406 143.34375 96.714844 143.492188 96.792969 C 143.71875 96.941406 143.941406 96.941406 144.164062 97.015625 C 144.464844 97.089844 144.761719 97.089844 145.0625 97.015625 C 145.65625 96.941406 146.328125 96.792969 146.851562 96.417969 C 147 96.34375 147.152344 96.195312 147.300781 96.121094 C 147.523438 95.894531 147.671875 95.671875 147.75 95.375 C 147.75 94.402344 147.75 93.433594 147.75 92.386719 C 147.824219 92.164062 147.75 92.015625 147.671875 91.867188 C 147.597656 91.714844 147.449219 91.566406 147.300781 91.492188 C 147.078125 91.34375 146.851562 91.34375 146.628906 91.269531 C 146.328125 91.195312 146.03125 91.195312 145.734375 91.269531 C 145.136719 91.34375 144.464844 91.492188 143.941406 91.867188 C 143.792969 91.941406 143.644531 92.089844 143.492188 92.164062 C 143.269531 92.386719 143.121094 92.613281 143.046875 92.910156 Z M 143.046875 92.910156 " fill-opacity="1" fill-rule="nonzero"/><path fill="#fff8e1" d="M 145.582031 105.296875 C 148.195312 105.296875 149.242188 102.015625 146.03125 102.015625 C 143.417969 101.941406 142.375 105.296875 145.582031 105.296875 Z M 145.582031 105.296875 " fill-opacity="1" fill-rule="nonzero"/><path fill="#fff8e1" d="M 87.359375 124.402344 C 88.03125 124.925781 88.703125 125.523438 89.152344 126.269531 C 89.078125 126.195312 89.078125 126.121094 89.003906 126.042969 C 89.152344 126.269531 89.300781 126.492188 89.375 126.640625 C 89.449219 126.792969 89.523438 126.867188 89.675781 126.941406 C 89.824219 127.015625 90.046875 127.089844 90.269531 127.089844 C 90.570312 127.089844 90.792969 127.089844 91.09375 127.089844 C 91.390625 127.089844 91.691406 127.015625 91.988281 126.941406 C 92.511719 126.792969 93.109375 126.566406 93.554688 126.195312 C 93.628906 126.121094 93.78125 125.96875 93.855469 125.894531 C 94.003906 125.746094 94.078125 125.597656 94.078125 125.375 C 93.480469 124.328125 92.734375 123.359375 91.765625 122.6875 C 91.464844 122.460938 90.941406 122.386719 90.570312 122.460938 C 90.269531 122.460938 89.972656 122.539062 89.675781 122.613281 C 89.375 122.6875 89.003906 122.761719 88.703125 122.910156 C 88.554688 122.984375 88.332031 123.058594 88.179688 123.132812 C 87.882812 123.285156 87.660156 123.433594 87.433594 123.65625 C 87.359375 123.730469 87.285156 123.804688 87.285156 123.957031 C 87.136719 124.105469 87.136719 124.253906 87.359375 124.402344 Z M 87.359375 124.402344 " fill-opacity="1" fill-rule="nonzero"/><path fill="#fff8e1" d="M 96.167969 131.867188 C 97.660156 131.867188 101.246094 129.550781 98.109375 129.550781 C 96.617188 129.550781 93.035156 131.867188 96.167969 131.867188 Z M 96.167969 131.867188 " fill-opacity="1" fill-rule="nonzero"/><path fill="#fff8e1" d="M 197.984375 33.058594 C 197.984375 33.132812 197.984375 33.207031 197.984375 33.285156 C 197.984375 33.65625 198.058594 33.957031 198.207031 34.253906 C 198.28125 34.550781 198.507812 34.851562 198.730469 35.074219 C 198.953125 35.296875 199.179688 35.449219 199.550781 35.597656 C 199.851562 35.746094 200.148438 35.820312 200.523438 35.820312 C 200.746094 35.820312 200.96875 35.746094 201.195312 35.746094 C 201.640625 35.597656 201.941406 35.449219 202.238281 35.148438 C 202.386719 35 202.464844 34.851562 202.613281 34.625 C 202.835938 34.253906 202.910156 33.804688 202.910156 33.359375 C 202.910156 33.285156 202.910156 33.207031 202.910156 33.132812 C 202.910156 32.761719 202.835938 32.460938 202.6875 32.164062 C 202.613281 31.867188 202.386719 31.566406 202.164062 31.34375 C 201.941406 31.121094 201.714844 30.96875 201.34375 30.820312 C 201.042969 30.671875 200.746094 30.597656 200.375 30.597656 C 200.148438 30.597656 199.925781 30.671875 199.703125 30.671875 C 199.253906 30.820312 198.953125 30.96875 198.65625 31.269531 C 198.507812 31.417969 198.433594 31.566406 198.28125 31.792969 C 198.058594 32.238281 197.984375 32.613281 197.984375 33.058594 Z M 197.984375 33.058594 " fill-opacity="1" fill-rule="nonzero"/><path fill="#fff8e1" d="M 200.671875 45.746094 C 203.808594 45.746094 203.808594 40.820312 200.671875 40.820312 C 197.460938 40.894531 197.460938 45.746094 200.671875 45.746094 Z M 200.671875 45.746094 " fill-opacity="1" fill-rule="nonzero"/><path fill="#fff8e1" d="M 123.785156 23.65625 C 123.710938 23.730469 123.636719 23.804688 123.5625 23.878906 C 123.339844 24.105469 123.191406 24.328125 123.039062 24.703125 C 122.890625 25 122.816406 25.296875 122.816406 25.671875 C 122.816406 26.042969 122.890625 26.34375 123.039062 26.640625 C 123.117188 26.941406 123.339844 27.238281 123.5625 27.460938 C 123.710938 27.613281 123.863281 27.6875 124.085938 27.835938 C 124.457031 28.058594 124.90625 28.132812 125.355469 28.132812 C 125.578125 28.132812 125.800781 28.058594 126.027344 28.058594 C 126.472656 27.910156 126.773438 27.761719 127.070312 27.460938 C 127.144531 27.386719 127.222656 27.3125 127.296875 27.238281 C 127.519531 27.015625 127.667969 26.792969 127.816406 26.417969 C 127.96875 26.121094 128.042969 25.820312 128.042969 25.449219 C 128.042969 25.074219 127.96875 24.777344 127.816406 24.476562 C 127.742188 24.179688 127.519531 23.878906 127.296875 23.65625 C 127.144531 23.507812 126.996094 23.433594 126.773438 23.285156 C 126.398438 23.058594 125.953125 22.984375 125.503906 22.984375 C 125.28125 22.984375 125.054688 23.058594 124.832031 23.058594 C 124.457031 23.132812 124.160156 23.359375 123.785156 23.65625 Z M 123.785156 23.65625 " fill-opacity="1" fill-rule="nonzero"/><path fill="#fff8e1" d="M 124.90625 35.296875 C 128.042969 35.296875 128.042969 30.375 124.90625 30.375 C 121.773438 30.449219 121.773438 35.296875 124.90625 35.296875 Z M 124.90625 35.296875 " fill-opacity="1" fill-rule="nonzero"/><path fill="#fff8e1" d="M 282.855469 78.132812 C 285.992188 78.132812 285.992188 73.207031 282.855469 73.207031 C 279.722656 73.285156 279.722656 78.132812 282.855469 78.132812 Z M 282.855469 78.132812 " fill-opacity="1" fill-rule="nonzero"/><path fill="#fff8e1" d="M 283.902344 88.285156 C 287.035156 88.285156 287.035156 83.359375 283.902344 83.359375 C 280.765625 83.359375 280.765625 88.285156 283.902344 88.285156 Z M 283.902344 88.285156 " fill-opacity="1" fill-rule="nonzero"/><path fill="#fff8e1" d="M 189.921875 218.957031 C 189.921875 219.03125 189.921875 219.105469 189.921875 219.179688 C 189.921875 219.550781 189.996094 219.851562 190.148438 220.148438 C 190.222656 220.449219 190.445312 220.746094 190.667969 220.96875 C 190.894531 221.195312 191.117188 221.34375 191.492188 221.492188 C 191.789062 221.640625 192.085938 221.714844 192.460938 221.714844 C 192.683594 221.714844 192.910156 221.640625 193.132812 221.640625 C 193.582031 221.492188 193.878906 221.34375 194.175781 221.042969 C 194.328125 220.894531 194.402344 220.746094 194.550781 220.523438 C 194.773438 220.148438 194.847656 219.703125 194.847656 219.253906 C 194.847656 219.179688 194.847656 219.105469 194.847656 219.03125 C 194.847656 218.65625 194.773438 218.359375 194.625 218.058594 C 194.550781 217.761719 194.328125 217.460938 194.101562 217.238281 C 193.878906 217.015625 193.65625 216.867188 193.28125 216.714844 C 192.984375 216.566406 192.683594 216.492188 192.3125 216.492188 C 192.085938 216.492188 191.863281 216.566406 191.640625 216.566406 C 191.191406 216.714844 190.894531 216.867188 190.59375 217.164062 C 190.445312 217.3125 190.371094 217.460938 190.222656 217.6875 C 190.070312 218.132812 189.921875 218.507812 189.921875 218.957031 Z M 189.921875 218.957031 " fill-opacity="1" fill-rule="nonzero"/><path fill="#fff8e1" d="M 196.117188 227.089844 C 196.117188 227.164062 196.117188 227.238281 196.117188 227.3125 C 196.117188 227.6875 196.191406 227.984375 196.34375 228.285156 C 196.417969 228.582031 196.640625 228.878906 196.863281 229.105469 C 197.089844 229.328125 197.3125 229.476562 197.6875 229.625 C 197.984375 229.777344 198.28125 229.851562 198.65625 229.851562 C 198.878906 229.851562 199.105469 229.777344 199.328125 229.777344 C 199.777344 229.625 200.074219 229.476562 200.375 229.179688 C 200.523438 229.03125 200.597656 228.878906 200.746094 228.65625 C 200.96875 228.285156 201.042969 227.835938 201.042969 227.386719 C 201.042969 227.3125 201.042969 227.238281 201.042969 227.164062 C 201.042969 226.789062 200.96875 226.492188 200.820312 226.195312 C 200.746094 225.894531 200.523438 225.597656 200.296875 225.375 C 200.074219 225.148438 199.851562 225 199.476562 224.851562 C 199.179688 224.703125 198.878906 224.625 198.507812 224.625 C 198.28125 224.625 198.058594 224.703125 197.835938 224.703125 C 197.386719 224.851562 197.089844 225 196.789062 225.296875 C 196.640625 225.449219 196.566406 225.597656 196.417969 225.820312 C 196.265625 226.269531 196.117188 226.640625 196.117188 227.089844 Z M 196.117188 227.089844 " fill-opacity="1" fill-rule="nonzero"/></svg>